<svg width="20" height="20" viewBox="0 0 20 20" fill="none" xmlns="http://www.w3.org/2000/svg">
<path fill-rule="evenodd" clip-rule="evenodd" d="M9.59442 7.86608C9.16917 7.65532 8.66984 7.65532 8.24453 7.86608C8.01732 7.97867 7.77435 8.22263 7.58241 8.41543C7.38963 8.60734 7.14566 8.85034 7.03307 9.07751C6.82231 9.50284 6.82231 10.0022 7.03307 10.4274C7.14566 10.6547 7.3401 10.8483 7.53289 11.0402L7.58241 11.0896L14.7928 18.3001C14.9848 18.4929 15.1783 18.6873 15.4056 18.7999C15.8308 19.0107 16.3302 19.0107 16.7555 18.7999C16.9827 18.6873 17.2257 18.4434 17.4176 18.2506C17.6103 18.0587 17.8543 17.8157 17.9669 17.5885C18.1777 17.1632 18.1777 16.6638 17.9669 16.2386C17.8543 16.0113 17.6599 15.8178 17.4671 15.6258L10.2566 8.41543L10.2072 8.36593C10.0153 8.17311 9.82167 7.97867 9.59442 7.86608ZM8.46742 9.29959C8.59442 9.17259 8.6715 9.09584 8.73275 9.04118C8.794 8.97718 8.95492 8.88759 9.1085 9.04118C9.16967 9.09584 9.24675 9.17259 9.37384 9.29959L10.7221 10.6479L9.81575 11.5543L8.46742 10.206C8.34042 10.079 8.26365 10.0019 8.209 9.94068C8.05687 9.78851 8.14561 9.62676 8.209 9.56493C8.26365 9.50376 8.34042 9.42659 8.46742 9.29959Z" fill="#1E1E1E"/>
<path d="M14.1666 1.04199C14.4281 1.04199 14.6621 1.20483 14.7528 1.45009L14.9985 2.11393C15.3404 3.03803 15.4567 3.31394 15.6549 3.51209C15.8531 3.71023 16.129 3.82658 17.0531 4.16853L17.7169 4.41417C17.9621 4.50493 18.125 4.7388 18.125 5.00033C18.125 5.26185 17.9621 5.49573 17.7169 5.58648L17.0531 5.83213C16.129 6.17408 15.8531 6.29042 15.6549 6.48856C15.4567 6.68671 15.3404 6.96263 14.9985 7.88673L14.7528 8.55058C14.6621 8.79583 14.4281 8.95866 14.1666 8.95866C13.9051 8.95866 13.6712 8.79583 13.5805 8.55058L13.3348 7.88673C12.9929 6.96263 12.8766 6.68671 12.6784 6.48856C12.4802 6.29042 12.2043 6.17408 11.2802 5.83213L10.6164 5.58648C10.3711 5.49573 10.2083 5.26185 10.2083 5.00033C10.2083 4.7388 10.3711 4.50493 10.6164 4.41417L11.2802 4.16853C12.2043 3.82658 12.4802 3.71023 12.6784 3.51209C12.8766 3.31394 12.9929 3.03803 13.3348 2.11393L13.5805 1.45009C13.6712 1.20483 13.9051 1.04199 14.1666 1.04199Z" fill="#1E1E1E"/>
<path d="M5 2.70801C5.26152 2.70801 5.4954 2.87084 5.58616 3.11611L5.77039 3.61398C6.03181 4.32047 6.10789 4.48757 6.22667 4.60635C6.34543 4.72512 6.51254 4.8012 7.21903 5.06262L7.7169 5.24685C7.96217 5.33761 8.125 5.57148 8.125 5.83301C8.125 6.09453 7.96217 6.32841 7.7169 6.41917L7.21903 6.6034C6.51254 6.86482 6.34543 6.9409 6.22667 7.05967C6.10789 7.17844 6.03181 7.34555 5.77039 8.05203L5.58616 8.54992C5.4954 8.79517 5.26152 8.95801 5 8.95801C4.73847 8.95801 4.5046 8.79517 4.41384 8.54992L4.22961 8.05203C3.96819 7.34555 3.89211 7.17844 3.77334 7.05967C3.65457 6.9409 3.48746 6.86482 2.78097 6.6034L2.2831 6.41917C2.03783 6.32841 1.875 6.09453 1.875 5.83301C1.875 5.57148 2.03783 5.33761 2.2831 5.24685L2.78097 5.06262C3.48746 4.8012 3.65457 4.72512 3.77334 4.60634C3.89211 4.48757 3.96819 4.32047 4.22962 3.61398L4.41384 3.11611C4.5046 2.87084 4.73847 2.70801 5 2.70801Z" fill="#1E1E1E"/>
</svg>
