<svg width="20" height="20" viewBox="0 0 20 20" fill="none" xmlns="http://www.w3.org/2000/svg">
<path fill-rule="evenodd" clip-rule="evenodd" d="M14.1575 1.16961C13.2081 1.04197 11.9951 1.04198 10.4637 1.04199H9.53635C8.00491 1.04198 6.7919 1.04197 5.84256 1.1696C4.86555 1.30096 4.07476 1.57772 3.45113 2.20135C2.8275 2.82498 2.55073 3.61576 2.41936 4.59278C2.29172 5.54211 2.29172 6.75513 2.29172 8.28658L2.29169 11.7139C2.29166 13.2453 2.29165 14.4585 2.41927 15.4078C2.55062 16.3848 2.82738 17.1757 3.45102 17.7992C4.07465 18.4229 4.86545 18.6997 5.84247 18.8311C6.79182 18.9587 8.00485 18.9587 9.53627 18.9587H10.4636C11.995 18.9587 13.2081 18.9587 14.1575 18.8311C15.1345 18.6997 15.9253 18.4229 16.5489 17.7993C17.1726 17.1757 17.4494 16.3848 17.5807 15.4078C17.7084 14.4585 17.7083 13.2455 17.7083 11.7141V8.28665C17.7083 6.7552 17.7084 5.54214 17.5807 4.59281C17.4494 3.61579 17.1726 2.825 16.5489 2.20136C15.9253 1.57773 15.1345 1.30096 14.1575 1.16961ZM6.66669 5.00033C6.20645 5.00033 5.83335 5.37343 5.83335 5.83366C5.83335 6.2939 6.20645 6.66699 6.66669 6.66699H13.3334C13.7936 6.66699 14.1667 6.2939 14.1667 5.83366C14.1667 5.37343 13.7936 5.00033 13.3334 5.00033H6.66669ZM6.66669 9.16699C6.20645 9.16699 5.83335 9.54008 5.83335 10.0003C5.83335 10.4606 6.20645 10.8337 6.66669 10.8337H13.3334C13.7936 10.8337 14.1667 10.4606 14.1667 10.0003C14.1667 9.54008 13.7936 9.16699 13.3334 9.16699H6.66669ZM6.66669 13.3337C6.20645 13.3337 5.83335 13.7067 5.83335 14.167C5.83335 14.6272 6.20645 15.0003 6.66669 15.0003H10C10.4603 15.0003 10.8334 14.6272 10.8334 14.167C10.8334 13.7067 10.4603 13.3337 10 13.3337H6.66669Z" fill="#1E1E1E"/>
</svg>
