<svg width="412" height="402" viewBox="0 0 412 402" fill="none" xmlns="http://www.w3.org/2000/svg">
<g clip-path="url(#clip0_7214_2319)">
<rect x="9" y="9" width="394" height="384" rx="24" fill="#FFFDEF"/>
<path d="M135.972 456.263L52.1723 472.616C49.223 473.191 46.3451 474.087 43.5897 475.286L29.3096 481.5C17.8033 486.508 12.0066 499.457 15.9364 511.374C20.2096 524.333 34.3175 531.229 47.1679 526.64L384.248 406.264C426.542 391.16 451.252 347.211 442.179 303.227L440.084 282.952C438.56 268.196 418.197 265.528 412.922 279.393L408.498 291.022C405.03 300.14 391.915 299.473 389.389 290.052C386.89 280.736 373.98 279.941 370.358 288.88L348.713 342.297C345.747 349.616 335.195 349.029 333.059 341.426C330.987 334.048 320.868 333.198 317.594 340.127L298.948 379.586C293.453 391.215 277.791 393.305 269.439 383.524C261.566 374.303 246.968 375.53 240.745 385.935L224.364 413.322C218.726 422.748 205.968 424.846 197.609 417.721C189.357 410.687 176.782 412.628 171.035 421.823L159.719 439.93C154.408 448.429 145.809 454.343 135.972 456.263Z" fill="white"/>
<path d="M117.857 201.36C115.937 201.36 114.149 201.036 112.493 200.388C110.861 199.716 109.433 198.792 108.209 197.616C106.985 196.44 106.025 195.072 105.329 193.512C104.657 191.928 104.321 190.224 104.321 188.4C104.321 186.552 104.657 184.848 105.329 183.288C106.025 181.704 106.985 180.324 108.209 179.148C109.457 177.972 110.897 177.06 112.529 176.412C114.185 175.74 115.961 175.404 117.857 175.404C119.249 175.404 120.617 175.608 121.961 176.016C123.305 176.424 124.541 177 125.669 177.744C126.821 178.464 127.781 179.328 128.549 180.336L124.373 184.44C123.485 183.312 122.489 182.472 121.385 181.92C120.305 181.368 119.129 181.092 117.857 181.092C116.849 181.092 115.901 181.284 115.013 181.668C114.149 182.028 113.393 182.532 112.745 183.18C112.097 183.828 111.593 184.596 111.233 185.484C110.873 186.372 110.693 187.344 110.693 188.4C110.693 189.432 110.873 190.392 111.233 191.28C111.617 192.144 112.133 192.912 112.781 193.584C113.453 194.232 114.233 194.736 115.121 195.096C116.033 195.456 117.017 195.636 118.073 195.636C119.297 195.636 120.425 195.372 121.457 194.844C122.513 194.316 123.461 193.536 124.301 192.504L128.369 196.5C127.601 197.484 126.653 198.348 125.525 199.092C124.397 199.812 123.173 200.376 121.853 200.784C120.533 201.168 119.201 201.36 117.857 201.36ZM139.643 201.36C137.699 201.36 135.947 200.928 134.387 200.064C132.827 199.176 131.591 197.988 130.679 196.5C129.767 195.012 129.311 193.344 129.311 191.496C129.311 189.648 129.767 187.98 130.679 186.492C131.591 184.98 132.827 183.792 134.387 182.928C135.947 182.04 137.699 181.596 139.643 181.596C141.587 181.596 143.339 182.04 144.899 182.928C146.459 183.792 147.695 184.98 148.607 186.492C149.519 187.98 149.975 189.648 149.975 191.496C149.975 193.344 149.519 195.012 148.607 196.5C147.695 197.988 146.459 199.176 144.899 200.064C143.339 200.928 141.587 201.36 139.643 201.36ZM139.643 196.32C140.531 196.32 141.323 196.104 142.019 195.672C142.715 195.24 143.267 194.664 143.675 193.944C144.083 193.2 144.287 192.384 144.287 191.496C144.287 190.584 144.083 189.768 143.675 189.048C143.267 188.304 142.703 187.716 141.983 187.284C141.287 186.852 140.507 186.636 139.643 186.636C138.779 186.636 137.987 186.852 137.267 187.284C136.571 187.716 136.019 188.304 135.611 189.048C135.203 189.768 134.999 190.584 134.999 191.496C134.999 192.384 135.203 193.2 135.611 193.944C136.019 194.664 136.571 195.24 137.267 195.672C137.987 196.104 138.779 196.32 139.643 196.32ZM152.71 201V181.956H158.542V183.18C159.886 182.124 161.47 181.596 163.294 181.596C164.494 181.596 165.574 181.824 166.534 182.28C167.494 182.736 168.298 183.384 168.946 184.224C169.714 183.384 170.626 182.736 171.682 182.28C172.738 181.824 173.89 181.596 175.138 181.596C176.578 181.596 177.85 181.92 178.954 182.568C180.058 183.216 180.922 184.116 181.546 185.268C182.194 186.42 182.518 187.752 182.518 189.264V201H176.686V190.056C176.686 189 176.398 188.16 175.822 187.536C175.27 186.912 174.526 186.6 173.59 186.6C172.942 186.6 172.354 186.72 171.826 186.96C171.298 187.2 170.842 187.56 170.458 188.04C170.482 188.232 170.494 188.436 170.494 188.652C170.518 188.844 170.53 189.048 170.53 189.264V201H164.698V190.056C164.698 189 164.41 188.16 163.834 187.536C163.282 186.912 162.538 186.6 161.602 186.6C160.954 186.6 160.366 186.72 159.838 186.96C159.334 187.176 158.902 187.512 158.542 187.968V201H152.71ZM185.968 201V181.956H191.8V183.18C193.144 182.124 194.728 181.596 196.552 181.596C197.752 181.596 198.832 181.824 199.792 182.28C200.752 182.736 201.556 183.384 202.204 184.224C202.972 183.384 203.884 182.736 204.94 182.28C205.996 181.824 207.148 181.596 208.396 181.596C209.836 181.596 211.108 181.92 212.212 182.568C213.316 183.216 214.18 184.116 214.804 185.268C215.452 186.42 215.776 187.752 215.776 189.264V201H209.944V190.056C209.944 189 209.656 188.16 209.08 187.536C208.528 186.912 207.784 186.6 206.848 186.6C206.2 186.6 205.612 186.72 205.084 186.96C204.556 187.2 204.1 187.56 203.716 188.04C203.74 188.232 203.752 188.436 203.752 188.652C203.776 188.844 203.788 189.048 203.788 189.264V201H197.956V190.056C197.956 189 197.668 188.16 197.092 187.536C196.54 186.912 195.796 186.6 194.86 186.6C194.212 186.6 193.624 186.72 193.096 186.96C192.592 187.176 192.16 187.512 191.8 187.968V201H185.968ZM226.502 201.36C225.014 201.36 223.694 201.036 222.542 200.388C221.414 199.74 220.526 198.84 219.878 197.688C219.23 196.512 218.906 195.18 218.906 193.692V181.956H224.738V192.9C224.738 193.932 225.05 194.772 225.674 195.42C226.322 196.044 227.162 196.356 228.194 196.356C228.938 196.356 229.598 196.224 230.174 195.96C230.75 195.696 231.23 195.324 231.614 194.844V181.956H237.446V201H231.614V199.704C230.174 200.808 228.47 201.36 226.502 201.36ZM241.058 201V181.956H246.89V183.252C248.33 182.148 250.034 181.596 252.002 181.596C253.49 181.596 254.798 181.92 255.926 182.568C257.078 183.216 257.978 184.116 258.626 185.268C259.274 186.42 259.598 187.752 259.598 189.264V201H253.766V190.056C253.766 189 253.454 188.16 252.83 187.536C252.206 186.912 251.366 186.6 250.31 186.6C249.566 186.6 248.906 186.732 248.33 186.996C247.778 187.26 247.298 187.632 246.89 188.112V201H241.058ZM263.066 201V181.956H268.898V201H263.066ZM265.982 180.192C265.094 180.192 264.338 179.88 263.714 179.256C263.09 178.632 262.778 177.876 262.778 176.988C262.778 176.1 263.09 175.344 263.714 174.72C264.338 174.096 265.094 173.784 265.982 173.784C266.87 173.784 267.626 174.096 268.25 174.72C268.874 175.344 269.186 176.1 269.186 176.988C269.186 177.876 268.874 178.632 268.25 179.256C267.626 179.88 266.87 180.192 265.982 180.192ZM282.1 201.252C279.82 201.252 278.092 200.748 276.916 199.74C275.764 198.708 275.188 197.196 275.188 195.204V186.816H271.336V181.956H275.188V177.06L281.02 175.8V181.956H286.348V186.816H281.02V194.052C281.02 194.892 281.2 195.492 281.56 195.852C281.944 196.188 282.604 196.356 283.54 196.356C284.02 196.356 284.452 196.332 284.836 196.284C285.244 196.212 285.688 196.104 286.168 195.96V200.676C285.64 200.844 284.968 200.976 284.152 201.072C283.336 201.192 282.652 201.252 282.1 201.252ZM291.244 208.776C290.788 208.776 290.344 208.752 289.912 208.704C289.48 208.68 289.12 208.632 288.832 208.56V203.592C289.312 203.688 289.912 203.736 290.632 203.736C292.504 203.736 293.764 202.92 294.412 201.288V201.252L287.104 181.956H293.548L297.76 193.944L302.656 181.956H308.956L300.424 201.972C299.728 203.628 298.96 204.948 298.12 205.932C297.28 206.94 296.308 207.66 295.204 208.092C294.1 208.548 292.78 208.776 291.244 208.776Z" fill="#E1E1E1"/>
</g>
<rect x="9" y="9" width="394" height="384" rx="24" stroke="white" stroke-width="18"/>
<defs>
<clipPath id="clip0_7214_2319">
<rect x="9" y="9" width="394" height="384" rx="24" fill="white"/>
</clipPath>
</defs>
</svg>
