<svg width="24" height="24" viewBox="0 0 24 24" fill="none" xmlns="http://www.w3.org/2000/svg">
<path fill-rule="evenodd" clip-rule="evenodd" d="M6.74936 8.96426C6.7691 9.5162 6.33768 9.97963 5.78575 9.99937C4.16771 10.0573 2.96246 11.2414 3.00094 12.6572C3.00924 12.9624 3.1321 13.388 3.52759 14.6499C4.38352 17.3809 5.7049 19.4075 8.52766 19.9057C9.04109 19.9963 9.63387 20.0001 11.0697 20.0001H12.9303C14.3661 20.0001 14.9589 19.9963 15.4723 19.9057C18.2951 19.4075 19.6165 17.3809 20.4724 14.6499C20.8679 13.388 20.9907 12.9624 20.999 12.6572C21.0375 11.2414 19.8323 10.0573 18.2142 9.99937C17.6623 9.97963 17.2309 9.5162 17.2506 8.96427C17.2704 8.41233 17.7338 7.98091 18.2857 8.00065C20.7831 8.08998 23.0722 9.99243 22.9983 12.7116C22.9814 13.3349 22.7556 14.0541 22.4337 15.0797C22.4163 15.1349 22.3987 15.191 22.3809 15.248C21.4432 18.2399 19.7501 21.1815 15.82 21.8753C15.1121 22.0002 14.3323 22.0002 13.0412 22.0001C13.0047 22.0001 12.9677 22.0001 12.9303 22.0001H11.0697C11.0323 22.0001 10.9953 22.0001 10.9587 22.0001C9.66768 22.0002 8.88784 22.0002 8.18001 21.8753C4.24987 21.1815 2.55682 18.2399 1.61912 15.248C1.60125 15.191 1.58364 15.1349 1.5663 15.0796C1.2444 14.0541 1.01862 13.3349 1.00168 12.7116C0.927772 9.99245 3.21688 8.08998 5.71425 8.00065C6.26618 7.98091 6.72962 8.41233 6.74936 8.96426Z" fill="white"/>
<path fill-rule="evenodd" clip-rule="evenodd" d="M13.0059 3C13.0059 2.44771 12.5581 2 12.0059 2C11.4536 2 11.0059 2.44771 11.0059 3V10.5H10.4116C10.236 10.4999 10.0203 10.4997 9.84387 10.5218L9.84053 10.5222C9.71408 10.538 9.13804 10.6098 8.86368 11.1754C8.58872 11.7422 8.89065 12.2424 8.95597 12.3506L8.95841 12.3546C9.05062 12.5076 9.18477 12.6785 9.29511 12.8191L9.31885 12.8493C9.61348 13.2251 9.99545 13.7093 10.3759 14.1003C10.5657 14.2955 10.783 14.4967 11.0139 14.6555C11.2191 14.7967 11.5693 15 12 15C12.4307 15 12.7809 14.7967 12.9861 14.6555C13.217 14.4967 13.4343 14.2955 13.6241 14.1003C14.0046 13.7093 14.3865 13.2251 14.6812 12.8493L14.7049 12.8191C14.8152 12.6785 14.9494 12.5076 15.0416 12.3546L15.044 12.3506C15.1093 12.2424 15.4113 11.7422 15.1363 11.1754C14.862 10.6098 14.2859 10.538 14.1595 10.5222L14.1561 10.5218C13.9797 10.4997 13.764 10.4999 13.5884 10.5H13.0059V3Z" fill="white"/>
</svg>
