<svg width="20" height="20" viewBox="0 0 20 20" fill="none" xmlns="http://www.w3.org/2000/svg">
<path fill-rule="evenodd" clip-rule="evenodd" d="M11.7136 1.04199H9.95298C8.42148 1.04198 7.20847 1.04197 6.25913 1.16961C5.28211 1.30096 4.49132 1.57773 3.86768 2.20136C3.24405 2.825 2.96728 3.61579 2.83593 4.59281C2.70829 5.54215 2.7083 6.75517 2.70831 8.28662V11.714C2.7083 13.2455 2.70829 14.4585 2.83593 15.4078C2.96728 16.3848 3.24405 17.1757 3.86768 17.7993C4.49132 18.4229 5.28211 18.6997 6.25913 18.8311C7.20846 18.9587 8.42148 18.9587 9.9529 18.9587H11.7136C13.2451 18.9587 14.4581 18.9587 15.4075 18.8311C16.3845 18.6997 17.1753 18.4229 17.799 17.7993C18.4226 17.1757 18.6993 16.3848 18.8307 15.4078C18.9583 14.4585 18.9583 13.2455 18.9583 11.7141V8.28665C18.9583 6.75521 18.9583 5.54214 18.8307 4.59281C18.6993 3.61579 18.4226 2.825 17.799 2.20136C17.1753 1.57773 16.3845 1.30096 15.4075 1.16961C14.4581 1.04197 13.2451 1.04198 11.7136 1.04199ZM9.40473 4.37533H9.36965C8.95073 4.3753 8.5829 4.37528 8.28671 4.41012C7.97194 4.44715 7.64387 4.53211 7.36737 4.77405C7.07886 5.02649 6.96517 5.34488 6.9171 5.65768C6.87487 5.93259 6.87492 6.26869 6.87499 6.62623V6.66699V6.70776C6.87492 7.0653 6.87487 7.4014 6.9171 7.67631C6.96517 7.9891 7.07886 8.3075 7.36737 8.55991C7.64387 8.80191 7.97194 8.88683 8.28671 8.92391C8.5829 8.95874 8.95081 8.95866 9.36965 8.95866H9.40473H12.297C12.7159 8.95866 13.0837 8.95874 13.3799 8.92391C13.6947 8.88683 14.0228 8.80191 14.2993 8.55991C14.5878 8.3075 14.7015 7.9891 14.7496 7.67631C14.7918 7.40141 14.7917 7.06532 14.7916 6.70779V6.66699V6.62622C14.7917 6.26869 14.7918 5.93258 14.7496 5.65768C14.7015 5.34489 14.5878 5.02649 14.2993 4.77405C14.0228 4.53211 13.6947 4.44715 13.3799 4.41012C13.0838 4.37528 12.7159 4.3753 12.297 4.37533H9.40473Z" fill="#1E1E1E"/>
<path fill-rule="evenodd" clip-rule="evenodd" d="M1.04169 5.00033C1.04169 4.54009 1.41479 4.16699 1.87502 4.16699H4.37502C4.83526 4.16699 5.20835 4.54009 5.20835 5.00033C5.20835 5.46057 4.83525 5.83366 4.37502 5.83366H1.87502C1.41479 5.83366 1.04169 5.46056 1.04169 5.00033ZM1.04169 10.0003C1.04169 9.54008 1.41479 9.16699 1.87502 9.16699H4.37502C4.83525 9.16699 5.20835 9.54008 5.20835 10.0003C5.20835 10.4606 4.83525 10.8337 4.37502 10.8337H1.87502C1.41479 10.8337 1.04169 10.4606 1.04169 10.0003ZM1.04169 15.0003C1.04169 14.5401 1.41479 14.167 1.87502 14.167H4.37502C4.83525 14.167 5.20835 14.5401 5.20835 15.0003C5.20835 15.4606 4.83525 15.8337 4.37502 15.8337H1.87502C1.41479 15.8337 1.04169 15.4606 1.04169 15.0003Z" fill="#1E1E1E"/>
</svg>
