<svg width="319" height="56" viewBox="0 0 319 56" fill="none" xmlns="http://www.w3.org/2000/svg">
<path d="M29.572 39.2271L35.2341 46.0273L33.2424 47.8578C31.3266 49.6219 29.0788 51.0255 26.556 52.0214C24.0237 53.0267 21.4535 53.5294 18.9117 53.5294C15.4309 53.5294 12.1968 52.6379 9.30409 50.8928C6.43035 49.1477 4.14463 46.7671 2.48488 43.808C0.834617 40.8584 0 37.5199 0 33.8874C0 30.255 0.834617 26.9165 2.48488 23.9669C4.14463 21.0078 6.43983 18.6272 9.30409 16.8821C12.1968 15.137 15.4309 14.2455 18.9117 14.2455C21.4535 14.2455 24.0237 14.7576 26.556 15.7535C29.0788 16.7493 31.3266 18.153 33.2424 19.9266L35.2341 21.757L29.5436 28.5857L27.3432 26.3854C26.1861 25.2378 24.8488 24.3178 23.3693 23.6539C21.9087 23.0184 20.4102 22.6865 18.9117 22.6865C16.9958 22.6865 15.3171 23.1607 13.7617 24.1281C12.1873 25.1145 10.9638 26.4233 10.0249 28.1305C9.10492 29.8282 8.6307 31.763 8.6307 33.8874C8.6307 36.0119 9.10492 37.9467 10.0249 39.6444C10.9638 41.3516 12.1873 42.6604 13.7712 43.6468C15.3171 44.6142 16.9958 45.0884 18.9117 45.0884C20.4292 45.0884 21.9087 44.7564 23.3313 44.0925C24.8394 43.4192 26.1956 42.4992 27.3717 41.3611L29.572 39.2271Z" fill="white"/>
<path d="M108.897 0V16.2181C108.508 16.0284 108.119 15.8482 107.721 15.6775C105.454 14.7291 103.073 14.2454 100.636 14.2454C97.1648 14.2454 93.9306 15.1369 91.0379 16.882C88.1642 18.6271 85.8784 21.0077 84.2187 23.9668C83.1944 25.7878 82.4831 27.751 82.0847 29.8471C81.8381 31.1464 81.7148 32.4932 81.7148 33.8874C81.7148 35.2816 81.8381 36.6188 82.0847 37.9087C82.4831 40.0047 83.1944 41.9775 84.2187 43.8079C85.8784 46.767 88.1642 49.1476 91.0379 50.8927C93.9211 52.6378 97.1553 53.5293 100.636 53.5293C103.661 53.5293 106.431 52.9223 108.897 51.7178V52.8749H117.471V0H108.897ZM108.897 26.243V41.6076C108.119 42.5275 107.142 43.2863 105.89 43.9217C104.363 44.6995 102.59 45.0883 100.636 45.0883C98.6822 45.0883 97.0415 44.6141 95.4955 43.6467C93.9116 42.6603 92.6882 41.3515 91.7587 39.6443C90.8387 37.9656 90.3645 36.0308 90.3645 33.8874C90.3645 31.7439 90.8387 29.8091 91.7587 28.1304C92.6882 26.4327 93.9116 25.1144 95.4955 24.128C97.0415 23.1606 98.7202 22.6864 100.636 22.6864C102.552 22.6864 104.193 23.0942 105.758 23.9004C107.028 24.5738 108.081 25.361 108.897 26.243Z" fill="white"/>
<path d="M156.282 33.4986C156.282 30.0179 155.513 26.8027 154.015 23.9479C152.526 21.0742 150.458 18.7221 147.888 16.9675C145.213 15.1655 142.16 14.2455 138.802 14.2455C135.445 14.2455 132.087 15.137 129.232 16.9011C126.416 18.6462 124.168 21.0362 122.555 23.9953C120.953 26.9544 120.146 30.2834 120.146 33.8874C120.146 37.4915 120.981 40.8584 122.631 43.808C124.301 46.7766 126.596 49.1571 129.451 50.8928C132.343 52.6379 135.577 53.5294 139.058 53.5294C141.505 53.5294 143.867 53.1785 146.077 52.4861C148.334 51.7843 150.487 50.7031 152.478 49.252L154.812 47.5638L149.633 40.6023L147.328 42.4233C146.333 43.22 145.09 43.8649 143.62 44.3391C142.131 44.8418 140.595 45.0884 139.058 45.0884C137.218 45.0884 135.587 44.6426 134.069 43.7321C132.514 42.7837 131.3 41.5507 130.352 39.9479C129.906 39.1986 129.555 38.3925 129.289 37.5199H156.282V33.4986ZM134.098 23.891C135.483 23.0848 137.01 22.6865 138.736 22.6865C140.282 22.6865 141.609 23.0754 142.814 23.872C144.104 24.7067 145.166 25.8543 145.982 27.2864C146.314 27.846 146.598 28.4529 146.826 29.0789H129.669C129.934 28.4245 130.238 27.8175 130.608 27.2484C131.509 25.8353 132.685 24.7067 134.098 23.891Z" fill="white"/>
<path d="M173.428 23.2176V30.2549C173.428 32.6734 173.39 35.0919 173.39 37.5199C173.39 38.7244 173.361 39.9289 173.38 41.1334C173.399 42.2715 173.323 43.5424 174.139 44.4529C174.983 45.3919 176.453 45.1358 177.553 44.9176C178.881 44.6616 180.162 44.1874 181.395 43.6468C181.461 43.6183 181.527 43.5898 181.594 43.5614C181.746 43.495 181.897 43.4286 182.049 43.3527C182.495 43.1536 182.931 42.9449 183.377 42.7363C183.272 42.7837 183.396 44.8418 183.396 45.0315V51.8317L181.537 52.5146C180.513 52.8939 179.46 53.1595 178.417 53.3112C177.459 53.463 176.415 53.5389 175.306 53.5389C172.128 53.5389 169.577 52.6663 167.728 50.9402C165.821 49.1571 164.854 46.7386 164.854 43.7416V23.2176H157.76V14.8999H164.854V5.15002H173.437V14.8999H183.396V23.2176H173.437H173.428Z" fill="white"/>
<path d="M270.376 23.2176V30.2549C270.376 32.6734 270.338 35.0919 270.338 37.5199C270.338 38.7244 270.309 39.9289 270.328 41.1334C270.347 42.2715 270.271 43.5424 271.087 44.4529C271.931 45.3919 273.401 45.1358 274.501 44.9176C275.829 44.6616 277.109 44.1874 278.342 43.6468C278.409 43.6183 278.475 43.5898 278.542 43.5614C278.693 43.495 278.845 43.4286 278.997 43.3527C279.443 43.1536 279.879 42.9449 280.325 42.7363C280.22 42.7837 280.344 44.8418 280.344 45.0315V51.8317L278.485 52.5146C277.46 52.8939 276.408 53.1595 275.364 53.3112C274.406 53.463 273.363 53.5389 272.253 53.5389C269.076 53.5389 266.525 52.6663 264.675 50.9402C262.769 49.1571 261.802 46.7386 261.802 43.7416V23.2176H254.708V14.8999H261.802V5.15002H270.385V14.8999H280.344V23.2176H270.385H270.376Z" fill="white"/>
<path d="M199.085 7.96685C199.085 9.40846 198.573 10.7078 197.605 11.7131C196.609 12.7564 195.272 13.3065 193.755 13.3065C192.237 13.3065 190.976 12.7659 189.961 11.7416C188.946 10.7457 188.415 9.43692 188.415 7.96685C188.415 6.49679 188.946 5.20692 189.97 4.18262C190.985 3.1678 192.294 2.6272 193.755 2.6272C195.215 2.6272 196.609 3.17729 197.615 4.23004C198.582 5.24486 199.085 6.53472 199.085 7.96685Z" fill="white"/>
<path d="M198.033 14.9001H189.459V52.8752H198.033V14.9001Z" fill="white"/>
<path d="M239.973 14.9001L223.451 52.8752H217.106L200.509 14.9001H209.879L220.331 39.1515L230.745 14.9001H239.973Z" fill="white"/>
<path d="M252.083 7.96685C252.083 9.39898 251.571 10.6888 250.604 11.7037C249.598 12.7564 248.261 13.3065 246.743 13.3065C245.226 13.3065 243.965 12.7659 242.95 11.7511C241.935 10.7457 241.404 9.43692 241.404 7.96685C241.404 6.49679 241.935 5.18795 242.959 4.18262C243.974 3.1678 245.283 2.6272 246.743 2.6272C248.204 2.6272 249.598 3.17729 250.604 4.23004C251.571 5.25435 252.083 6.54421 252.083 7.96685Z" fill="white"/>
<path d="M251.02 14.9001H242.446V52.8752H251.02V14.9001Z" fill="white"/>
<path d="M318.999 33.4986C318.999 30.0179 318.24 26.8027 316.742 23.9479C315.253 21.0742 313.185 18.7221 310.606 16.9675C307.95 15.1655 304.896 14.2455 301.52 14.2455C298.143 14.2455 294.814 15.137 291.959 16.9011C289.143 18.6462 286.895 21.0362 285.283 23.9953C283.68 26.9355 282.874 30.2644 282.874 33.8874C282.874 37.5104 283.708 40.8584 285.358 43.808C287.028 46.7766 289.323 49.1571 292.178 50.8928C295.07 52.6379 298.304 53.5294 301.795 53.5294C304.232 53.5294 306.594 53.1785 308.804 52.4861C311.061 51.7843 313.214 50.7031 315.205 49.252L317.539 47.5638L312.36 40.6023L310.056 42.4233C309.069 43.2105 307.817 43.8554 306.347 44.3391C304.858 44.8323 303.322 45.0884 301.795 45.0884C299.945 45.0884 298.314 44.6426 296.796 43.7321C295.241 42.7837 294.027 41.5507 293.079 39.9479C292.633 39.2081 292.282 38.3925 292.016 37.5199H318.999V33.4986ZM292.396 29.0789C292.652 28.4245 292.965 27.8175 293.325 27.2484H293.335C294.236 25.8353 295.412 24.7067 296.825 23.891C298.21 23.0848 299.727 22.6865 301.453 22.6865C303.009 22.6865 304.336 23.0754 305.541 23.872C306.831 24.7067 307.893 25.8543 308.709 27.2864C309.041 27.846 309.325 28.4529 309.553 29.0789H292.396Z" fill="white"/>
<path fill-rule="evenodd" clip-rule="evenodd" d="M64.934 55.2992L54.6781 55.3037C53.9304 55.3037 53.3268 54.6956 53.3268 53.9479V46.1828L46.7868 52.5606C46.2508 53.0831 45.395 53.0696 44.877 52.5381L42.4538 50.0518L40.1026 47.5971C39.5892 47.0611 39.6027 46.2143 40.1297 45.6963L46.6066 39.3365H39.0622C38.3145 39.3365 37.7109 38.7329 37.7109 37.9852V27.7968C37.7109 26.7158 38.1433 25.6844 38.9045 24.9232L48.62 15.2753C49.3812 14.5186 50.4126 14.0907 51.4891 14.0952L61.7451 14.0907C62.4928 14.0907 63.0963 14.6988 63.0963 15.4464V23.2116L69.6364 16.8337C70.1723 16.3112 71.0236 16.3248 71.5461 16.8562L73.9693 19.3425L76.3205 21.7973C76.834 22.3333 76.8205 23.1801 76.2935 23.698L69.8165 30.0579H77.361C78.1087 30.0579 78.7122 30.6615 78.7122 31.4092V41.5975C78.7122 42.6785 78.2798 43.71 77.5186 44.4712L67.8122 54.1191C67.051 54.8758 66.015 55.2992 64.943 55.2992H64.934ZM55.3807 23.5854C54.3042 23.5854 53.2728 24.0043 52.5116 24.7655L48.3813 28.8733C47.6156 29.6345 47.1832 30.6705 47.1877 31.7515L47.1967 39.2509L53.3989 45.8179L61.0424 45.7999C62.1189 45.7999 63.1504 45.381 63.9116 44.6198L68.0419 40.512C68.8076 39.7508 69.24 38.7149 69.2355 37.6339L69.2265 30.1345L63.0243 23.5674L55.3807 23.5854Z" fill="white"/>
</svg>
