<svg width="394" height="384" viewBox="0 0 394 384" fill="none" xmlns="http://www.w3.org/2000/svg">
<g clip-path="url(#clip0_7214_2487)">
<g clip-path="url(#clip1_7214_2487)">
<rect width="394" height="384" rx="24" fill="#F4F6F9"/>
<path d="M126.972 447.263L43.1723 463.616C40.223 464.191 37.3451 465.087 34.5897 466.286L20.3096 472.5C8.8033 477.508 3.00663 490.457 6.93642 502.374C11.2096 515.333 25.3175 522.229 38.1679 517.64L375.248 397.264C417.542 382.16 442.252 338.211 433.179 294.227L431.084 273.952C429.56 259.196 409.197 256.528 403.922 270.393L399.498 282.022C396.03 291.14 382.915 290.473 380.389 281.052C377.89 271.736 364.98 270.941 361.358 279.88L339.713 333.297C336.747 340.616 326.195 340.029 324.059 332.426C321.987 325.048 311.868 324.198 308.594 331.127L289.948 370.586C284.453 382.215 268.791 384.305 260.439 374.524C252.566 365.303 237.968 366.53 231.745 376.935L215.364 404.322C209.726 413.748 196.968 415.846 188.609 408.721C180.357 401.687 167.782 403.628 162.035 412.823L150.719 430.93C145.408 439.429 136.809 445.343 126.972 447.263Z" fill="white"/>
<path d="M100.734 192.396C98.838 192.396 97.074 192.072 95.442 191.424C93.81 190.752 92.382 189.828 91.158 188.652C89.934 187.452 88.974 186.072 88.278 184.512C87.606 182.928 87.27 181.224 87.27 179.4C87.27 177.576 87.606 175.884 88.278 174.324C88.974 172.74 89.934 171.36 91.158 170.184C92.382 168.984 93.81 168.06 95.442 167.412C97.074 166.74 98.838 166.404 100.734 166.404C102.63 166.404 104.394 166.74 106.026 167.412C107.658 168.06 109.086 168.984 110.31 170.184C111.534 171.36 112.482 172.74 113.154 174.324C113.85 175.884 114.198 177.576 114.198 179.4C114.198 181.224 113.85 182.928 113.154 184.512C112.482 186.072 111.534 187.452 110.31 188.652C109.086 189.828 107.658 190.752 106.026 191.424C104.394 192.072 102.63 192.396 100.734 192.396ZM100.734 186.708C101.742 186.708 102.678 186.528 103.542 186.168C104.406 185.784 105.15 185.268 105.774 184.62C106.422 183.972 106.926 183.204 107.286 182.316C107.646 181.404 107.826 180.432 107.826 179.4C107.826 178.344 107.646 177.372 107.286 176.484C106.926 175.596 106.422 174.828 105.774 174.18C105.15 173.532 104.406 173.028 103.542 172.668C102.678 172.284 101.742 172.092 100.734 172.092C99.726 172.092 98.79 172.284 97.926 172.668C97.062 173.028 96.306 173.532 95.658 174.18C95.034 174.828 94.542 175.596 94.182 176.484C93.822 177.372 93.642 178.344 93.642 179.4C93.642 180.432 93.822 181.404 94.182 182.316C94.542 183.204 95.034 183.972 95.658 184.62C96.306 185.268 97.062 185.784 97.926 186.168C98.79 186.528 99.726 186.708 100.734 186.708ZM117.202 199.344V172.956H122.962V174.36C124.474 173.256 126.178 172.704 128.074 172.704C129.898 172.704 131.542 173.148 133.006 174.036C134.47 174.9 135.634 176.076 136.498 177.564C137.362 179.028 137.794 180.672 137.794 182.496C137.794 184.32 137.35 185.976 136.462 187.464C135.598 188.928 134.41 190.092 132.898 190.956C131.41 191.82 129.742 192.252 127.894 192.252C127.006 192.252 126.154 192.144 125.338 191.928C124.522 191.712 123.754 191.4 123.034 190.992V199.344H117.202ZM127.066 187.32C128.026 187.32 128.878 187.116 129.622 186.708C130.366 186.276 130.954 185.7 131.386 184.98C131.842 184.236 132.07 183.408 132.07 182.496C132.07 181.584 131.842 180.768 131.386 180.048C130.954 179.304 130.354 178.728 129.586 178.32C128.842 177.888 128.002 177.672 127.066 177.672C126.25 177.672 125.506 177.804 124.834 178.068C124.162 178.308 123.562 178.68 123.034 179.184V185.844C123.538 186.3 124.138 186.66 124.834 186.924C125.53 187.188 126.274 187.32 127.066 187.32ZM140.546 199.344V172.956H146.306V174.36C147.818 173.256 149.522 172.704 151.418 172.704C153.242 172.704 154.886 173.148 156.35 174.036C157.814 174.9 158.978 176.076 159.842 177.564C160.706 179.028 161.138 180.672 161.138 182.496C161.138 184.32 160.694 185.976 159.806 187.464C158.942 188.928 157.754 190.092 156.242 190.956C154.754 191.82 153.086 192.252 151.238 192.252C150.35 192.252 149.498 192.144 148.682 191.928C147.866 191.712 147.098 191.4 146.378 190.992V199.344H140.546ZM150.41 187.32C151.37 187.32 152.222 187.116 152.966 186.708C153.71 186.276 154.298 185.7 154.73 184.98C155.186 184.236 155.414 183.408 155.414 182.496C155.414 181.584 155.186 180.768 154.73 180.048C154.298 179.304 153.698 178.728 152.93 178.32C152.186 177.888 151.346 177.672 150.41 177.672C149.594 177.672 148.85 177.804 148.178 178.068C147.506 178.308 146.906 178.68 146.378 179.184V185.844C146.882 186.3 147.482 186.66 148.178 186.924C148.874 187.188 149.618 187.32 150.41 187.32ZM173.358 192.36C171.414 192.36 169.662 191.928 168.102 191.064C166.542 190.176 165.306 188.988 164.394 187.5C163.482 186.012 163.026 184.344 163.026 182.496C163.026 180.648 163.482 178.98 164.394 177.492C165.306 175.98 166.542 174.792 168.102 173.928C169.662 173.04 171.414 172.596 173.358 172.596C175.302 172.596 177.054 173.04 178.614 173.928C180.174 174.792 181.41 175.98 182.322 177.492C183.234 178.98 183.69 180.648 183.69 182.496C183.69 184.344 183.234 186.012 182.322 187.5C181.41 188.988 180.174 190.176 178.614 191.064C177.054 191.928 175.302 192.36 173.358 192.36ZM173.358 187.32C174.246 187.32 175.038 187.104 175.734 186.672C176.43 186.24 176.982 185.664 177.39 184.944C177.798 184.2 178.002 183.384 178.002 182.496C178.002 181.584 177.798 180.768 177.39 180.048C176.982 179.304 176.418 178.716 175.698 178.284C175.002 177.852 174.222 177.636 173.358 177.636C172.494 177.636 171.702 177.852 170.982 178.284C170.286 178.716 169.734 179.304 169.326 180.048C168.918 180.768 168.714 181.584 168.714 182.496C168.714 183.384 168.918 184.2 169.326 184.944C169.734 185.664 170.286 186.24 170.982 186.672C171.702 187.104 172.494 187.32 173.358 187.32ZM186.425 192V172.956H192.257V174.864C192.881 174.096 193.613 173.52 194.453 173.136C195.293 172.728 196.229 172.524 197.261 172.524C198.293 172.548 199.025 172.704 199.457 172.992V178.068C199.073 177.876 198.641 177.732 198.161 177.636C197.681 177.54 197.189 177.492 196.685 177.492C195.773 177.492 194.921 177.708 194.129 178.14C193.361 178.548 192.737 179.136 192.257 179.904V192H186.425ZM211.576 192.252C209.296 192.252 207.568 191.748 206.392 190.74C205.24 189.708 204.664 188.196 204.664 186.204V177.816H200.812V172.956H204.664V168.06L210.496 166.8V172.956H215.824V177.816H210.496V185.052C210.496 185.892 210.676 186.492 211.036 186.852C211.42 187.188 212.08 187.356 213.016 187.356C213.496 187.356 213.928 187.332 214.312 187.284C214.72 187.212 215.164 187.104 215.644 186.96V191.676C215.116 191.844 214.444 191.976 213.628 192.072C212.812 192.192 212.128 192.252 211.576 192.252ZM225.553 192.36C224.065 192.36 222.745 192.036 221.593 191.388C220.465 190.74 219.577 189.84 218.929 188.688C218.281 187.512 217.957 186.18 217.957 184.692V172.956H223.789V183.9C223.789 184.932 224.101 185.772 224.725 186.42C225.373 187.044 226.213 187.356 227.245 187.356C227.989 187.356 228.649 187.224 229.225 186.96C229.801 186.696 230.281 186.324 230.665 185.844V172.956H236.497V192H230.665V190.704C229.225 191.808 227.521 192.36 225.553 192.36ZM240.109 192V172.956H245.941V174.252C247.381 173.148 249.085 172.596 251.053 172.596C252.541 172.596 253.849 172.92 254.977 173.568C256.129 174.216 257.029 175.116 257.677 176.268C258.325 177.42 258.649 178.752 258.649 180.264V192H252.817V181.056C252.817 180 252.505 179.16 251.881 178.536C251.257 177.912 250.417 177.6 249.361 177.6C248.617 177.6 247.957 177.732 247.381 177.996C246.829 178.26 246.349 178.632 245.941 179.112V192H240.109ZM262.116 192V172.956H267.948V192H262.116ZM265.032 171.192C264.144 171.192 263.388 170.88 262.764 170.256C262.14 169.632 261.828 168.876 261.828 167.988C261.828 167.1 262.14 166.344 262.764 165.72C263.388 165.096 264.144 164.784 265.032 164.784C265.92 164.784 266.676 165.096 267.3 165.72C267.924 166.344 268.236 167.1 268.236 167.988C268.236 168.876 267.924 169.632 267.3 170.256C266.676 170.88 265.92 171.192 265.032 171.192ZM281.15 192.252C278.87 192.252 277.142 191.748 275.966 190.74C274.814 189.708 274.238 188.196 274.238 186.204V177.816H270.386V172.956H274.238V168.06L280.07 166.8V172.956H285.398V177.816H280.07V185.052C280.07 185.892 280.25 186.492 280.61 186.852C280.994 187.188 281.654 187.356 282.59 187.356C283.07 187.356 283.502 187.332 283.886 187.284C284.294 187.212 284.738 187.104 285.218 186.96V191.676C284.69 191.844 284.018 191.976 283.202 192.072C282.386 192.192 281.702 192.252 281.15 192.252ZM290.295 199.776C289.839 199.776 289.395 199.752 288.963 199.704C288.531 199.68 288.171 199.632 287.883 199.56V194.592C288.363 194.688 288.963 194.736 289.683 194.736C291.555 194.736 292.815 193.92 293.463 192.288V192.252L286.155 172.956H292.599L296.811 184.944L301.707 172.956H308.007L299.475 192.972C298.779 194.628 298.011 195.948 297.171 196.932C296.331 197.94 295.359 198.66 294.255 199.092C293.151 199.548 291.831 199.776 290.295 199.776Z" fill="#E1E1E1"/>
</g>
<rect width="394" height="384" rx="24" stroke="white" stroke-width="18"/>
</g>
<defs>
<clipPath id="clip0_7214_2487">
<rect width="394" height="384" fill="white"/>
</clipPath>
<clipPath id="clip1_7214_2487">
<rect width="394" height="384" rx="24" fill="white"/>
</clipPath>
</defs>
</svg>
