<svg width="50" height="48" viewBox="0 0 50 48" fill="none" xmlns="http://www.w3.org/2000/svg">
<rect width="49.6" height="48" rx="24" fill="#EEF5FF"/>
<path fill-rule="evenodd" clip-rule="evenodd" d="M24.8 12C25.7554 12 26.5297 12.726 26.5297 13.6216V22.3784H35.8703C36.8256 22.3784 37.6 23.1043 37.6 24C37.6 24.8957 36.8256 25.6216 35.8703 25.6216H26.5297V34.3784C26.5297 35.274 25.7554 36 24.8 36C23.8446 36 23.0703 35.274 23.0703 34.3784V25.6216H13.7297C12.7744 25.6216 12 24.8957 12 24C12 23.1043 12.7744 22.3784 13.7297 22.3784H23.0703V13.6216C23.0703 12.726 23.8446 12 24.8 12Z" fill="#0A68EC"/>
</svg>
