<svg width="20" height="20" viewBox="0 0 20 20" fill="none" xmlns="http://www.w3.org/2000/svg">
<path fill-rule="evenodd" clip-rule="evenodd" d="M2.91668 1.6665C2.45644 1.6665 2.08334 2.0396 2.08334 2.49984V17.4998C2.08334 17.9601 2.45644 18.3332 2.91668 18.3332C3.37691 18.3332 3.75001 17.9601 3.75001 17.4998V13.3332H14.5833C16.4243 13.3332 17.9167 11.8408 17.9167 9.99984V4.99984C17.9167 3.15889 16.4243 1.6665 14.5833 1.6665H2.91668ZM11.0295 5.5391C11.0973 5.20062 10.8778 4.87135 10.5393 4.80366C10.2008 4.73596 9.87151 4.95548 9.80384 5.29395L8.97051 9.46059C8.90276 9.79909 9.12226 10.1283 9.46076 10.1961C9.79926 10.2638 10.1285 10.0443 10.1962 9.70575L11.0295 5.5391ZM7.94195 6.6918C8.18603 6.44772 8.18603 6.052 7.94195 5.80791C7.69788 5.56384 7.30214 5.56384 7.05807 5.80791L5.80807 7.05791C5.56399 7.302 5.56399 7.69772 5.80807 7.9418L7.05807 9.19184C7.30214 9.43584 7.69788 9.43584 7.94195 9.19184C8.18603 8.94775 8.18603 8.552 7.94195 8.30791L7.13389 7.49985L7.94195 6.6918ZM12.9419 5.80791C12.6978 5.56384 12.3022 5.56384 12.0581 5.80791C11.814 6.052 11.814 6.44772 12.0581 6.6918L12.8661 7.49985L12.0581 8.30791C11.814 8.552 11.814 8.94775 12.0581 9.19184C12.3022 9.43584 12.6978 9.43584 12.9419 9.19184L14.1919 7.9418C14.436 7.69772 14.436 7.302 14.1919 7.05791L12.9419 5.80791Z" fill="#1E1E1E"/>
</svg>
