<svg width="20" height="20" viewBox="0 0 20 20" fill="none" xmlns="http://www.w3.org/2000/svg">
<path fill-rule="evenodd" clip-rule="evenodd" d="M10 5.83325C10.4603 5.83325 10.8334 6.20635 10.8334 6.66659V9.65475L11.8393 10.6607C12.1647 10.9861 12.1647 11.5138 11.8393 11.8392C11.5139 12.1646 10.9862 12.1646 10.6608 11.8392L9.41077 10.5892C9.25452 10.4329 9.16669 10.2209 9.16669 9.99992V6.66659C9.16669 6.20635 9.53977 5.83325 10 5.83325Z" fill="#7A7A7A"/>
<path d="M15.6186 12.6394L16.6311 13.1861C17.2734 13.5329 17.8203 13.8283 18.2002 14.1171C18.599 14.4203 18.9583 14.8244 18.9583 15.4166C18.9583 16.0089 18.599 16.4129 18.2002 16.7161C17.8203 17.0049 17.2734 17.3003 16.6311 17.6471L15.6186 18.1939C15.1271 18.4593 14.7074 18.6859 14.379 18.8155C14.2095 18.8824 14.0169 18.9434 13.8201 18.9559C13.6081 18.9694 13.3581 18.9275 13.1413 18.7504C12.7946 18.4674 12.6975 18.078 12.7093 17.7429C12.7204 17.4284 12.8252 17.1204 12.9333 16.8704C13.0449 16.6124 13.1831 16.365 13.3003 16.1647C13.3477 16.0834 13.3888 16.0146 13.4242 15.9553C13.4856 15.8523 13.5299 15.778 13.561 15.7176C13.6631 15.5187 13.6701 15.4459 13.67 15.4154C13.6698 15.3843 13.6621 15.3128 13.561 15.1156C13.5299 15.0552 13.4856 14.9809 13.4242 14.8779C13.3888 14.8186 13.3477 14.7498 13.3003 14.6685C13.1831 14.4682 13.0449 14.2209 12.9333 13.9629C12.8252 13.7129 12.7204 13.4048 12.7093 13.0902C12.6975 12.7552 12.7946 12.3659 13.1413 12.0828C13.3581 11.9057 13.6081 11.8638 13.8201 11.8774C14.0169 11.8899 14.2095 11.9509 14.379 12.0177C14.7074 12.1473 15.1271 12.3739 15.6186 12.6394Z" fill="#7A7A7A"/>
<path fill-rule="evenodd" clip-rule="evenodd" d="M10 2.67054C5.95202 2.67054 2.67048 5.95208 2.67048 10.0001C2.67048 14.0481 5.95202 17.3297 10 17.3297C10.2545 17.3297 10.5058 17.3167 10.7531 17.2915C11.2005 17.2458 11.6003 17.5717 11.6459 18.0191C11.6915 18.4666 11.3657 18.8662 10.9183 18.9118C10.6161 18.9427 10.3098 18.9584 10 18.9584C5.05247 18.9584 1.04169 14.9477 1.04169 10.0001C1.04169 5.05253 5.05247 1.04175 10 1.04175C14.9476 1.04175 18.9584 5.05253 18.9584 10.0001C18.9584 10.6126 18.8968 11.2116 18.7792 11.7909C18.6897 12.2317 18.2599 12.5165 17.819 12.427C17.3783 12.3375 17.0934 11.9077 17.1829 11.4668C17.279 10.9936 17.3296 10.5032 17.3296 10.0001C17.3296 5.95208 14.048 2.67054 10 2.67054Z" fill="#7A7A7A"/>
</svg>
