<svg width="16" height="18" viewBox="0 0 16 18" fill="none" xmlns="http://www.w3.org/2000/svg">
<path fill-rule="evenodd" clip-rule="evenodd" d="M0.916677 0.666504C0.456443 0.666504 0.0833435 1.0396 0.0833435 1.49984V16.4998C0.0833435 16.9601 0.456443 17.3332 0.916677 17.3332C1.37691 17.3332 1.75001 16.9601 1.75001 16.4998V12.3332H12.5833C14.4243 12.3332 15.9167 10.8408 15.9167 8.99984V3.99984C15.9167 2.15889 14.4243 0.666504 12.5833 0.666504H0.916677ZM9.02951 4.5391C9.09726 4.20062 8.87776 3.87135 8.53926 3.80366C8.20076 3.73596 7.87151 3.95548 7.80384 4.29395L6.97051 8.46059C6.90276 8.79909 7.12226 9.12834 7.46076 9.19609C7.79926 9.26375 8.12851 9.04425 8.19618 8.70575L9.02951 4.5391ZM5.94195 5.6918C6.18603 5.44772 6.18603 5.052 5.94195 4.80791C5.69788 4.56384 5.30214 4.56384 5.05807 4.80791L3.80807 6.05791C3.56399 6.302 3.56399 6.69772 3.80807 6.9418L5.05807 8.19184C5.30214 8.43584 5.69788 8.43584 5.94195 8.19184C6.18603 7.94775 6.18603 7.552 5.94195 7.30791L5.13389 6.49985L5.94195 5.6918ZM10.9419 4.80791C10.6978 4.56384 10.3022 4.56384 10.0581 4.80791C9.81401 5.052 9.81401 5.44772 10.0581 5.6918L10.8661 6.49985L10.0581 7.30791C9.81401 7.552 9.81401 7.94775 10.0581 8.19184C10.3022 8.43584 10.6978 8.43584 10.9419 8.19184L12.1919 6.9418C12.436 6.69772 12.436 6.302 12.1919 6.05791L10.9419 4.80791Z" fill="#1E1E1E"/>
</svg>
