<svg width="1440" height="953" viewBox="0 0 1440 953" fill="none" xmlns="http://www.w3.org/2000/svg">
<path d="M-83.6104 989V-82.442M5.67648 989V-82.442M94.9633 989V-82.442M184.25 989V-82.442M273.537 989V-82.442M362.824 989V-82.442M452.111 989V-82.442M541.397 989V-82.442M630.684 989V-82.442M719.971 989V-82.442M809.258 989V-82.442M898.545 989V-82.442M987.832 989V-82.442M1077.12 989V-82.442M1166.41 989V-82.442M1255.69 989V-82.442M1344.98 989V-82.442M1434.27 989V-82.442M1523.55 989V-82.442M-83.0523 -83H1524.11M-83.0523 6.28683H1524.11M-83.0523 95.5737H1524.11M-83.0523 184.861H1524.11M-83.0523 274.147H1524.11M-83.0523 363.434H1524.11M-83.0523 452.721H1524.11M-83.0523 542.008H1524.11M-83.0523 631.295H1524.11M-83.0523 720.581H1524.11M-83.0523 809.868H1524.11M-83.0523 899.155H1524.11M-83.0523 988.442H1524.11" stroke="url(#paint0_linear_7818_1202)" stroke-width="1.11609"/>
<defs>
<linearGradient id="paint0_linear_7818_1202" x1="720.25" y1="-83" x2="720.25" y2="989" gradientUnits="userSpaceOnUse">
<stop stop-color="#EEEEEE"/>
<stop offset="1" stop-color="#E5E5E5" stop-opacity="0.1"/>
</linearGradient>
</defs>
</svg>
