<svg width="20" height="20" viewBox="0 0 20 20" fill="none" xmlns="http://www.w3.org/2000/svg">
<path d="M5.83335 1.66634C5.83335 1.20611 5.46025 0.833008 5.00002 0.833008C4.53979 0.833008 4.16669 1.20611 4.16669 1.66634V2.04038C4.48362 1.93985 4.8213 1.86807 5.17946 1.81602C5.38609 1.78598 5.60395 1.76197 5.83335 1.74278V1.66634Z" fill="#1E1E1E"/>
<path d="M15.8334 2.04038C15.5164 1.93985 15.1788 1.86807 14.8206 1.81602C14.6139 1.78598 14.3961 1.76197 14.1667 1.74278V1.66634C14.1667 1.20611 14.5398 0.833008 15 0.833008C15.4603 0.833008 15.8334 1.20611 15.8334 1.66634V2.04038Z" fill="#1E1E1E"/>
<path fill-rule="evenodd" clip-rule="evenodd" d="M10.8573 1.66699H9.14267C7.51912 1.66697 6.20951 1.66694 5.17944 1.81667C4.10446 1.97291 3.214 2.30683 2.51502 3.06249C1.82458 3.80892 1.52733 4.74426 1.3868 5.87421C1.24998 6.97444 1.24998 8.37874 1.25 10.1452V10.6887C1.24998 12.4552 1.24998 13.8596 1.3868 14.9597C1.52733 16.0897 1.82458 17.0251 2.51502 17.7715C3.214 18.5272 4.10446 18.8611 5.17944 19.0173C6.20952 19.1671 7.51911 19.167 9.14267 19.167H10.8573C12.4809 19.167 13.7905 19.1671 14.8206 19.0173C15.8956 18.8611 16.786 18.5272 17.485 17.7715C18.1754 17.0251 18.4727 16.0897 18.6132 14.9597C18.75 13.8596 18.75 12.4552 18.75 10.6887V10.1452C18.75 8.37874 18.75 6.97445 18.6132 5.87421C18.4727 4.74426 18.1754 3.80892 17.485 3.06249C16.786 2.30683 15.8956 1.97291 14.8206 1.81667C13.7905 1.66694 12.4809 1.66697 10.8573 1.66699ZM3.74819 7.50033C3.36601 7.50033 3.17492 7.50033 3.05321 7.62047C2.93151 7.7406 2.92906 7.92926 2.92417 8.30658C2.91689 8.86758 2.91667 9.49549 2.91667 10.203V10.631C2.91667 12.4683 2.91818 13.7687 3.04073 14.7541C3.16106 15.7217 3.38553 16.2582 3.73852 16.6397C4.08297 17.0122 4.55392 17.2422 5.41917 17.368C6.31548 17.4982 7.50354 17.5003 9.20833 17.5003H10.7917C12.4964 17.5003 13.6845 17.4982 14.5808 17.368C15.4461 17.2422 15.917 17.0122 16.2615 16.6397C16.6145 16.2582 16.8389 15.7217 16.9593 14.7541C17.0818 13.7687 17.0833 12.4683 17.0833 10.631V10.203C17.0833 9.49549 17.0831 8.86758 17.0758 8.30658C17.0709 7.92926 17.0685 7.7406 16.9468 7.62047C16.8251 7.50033 16.634 7.50033 16.2518 7.50033H3.74819Z" fill="#1E1E1E"/>
</svg>
